<svg xmlns="http://www.w3.org/2000/svg" width="841" height="700"><rect width="841" height="700" x="0" y="0" fill="#FFFFFF" id="backgorund"/><clipPath id="serieClipPath"><rect x="0" y="0" width="280.3333333333333" height="233.33333333333334"/></clipPath><g id="Real Madrid" transform="translate(0,0)" clip-path="url(#serieClipPath)"><g id="Real Madrid" transform="translate(135.66666666666666, 125.66666666666666)"><g id="axes"><circle r="73" fill="none" stroke="LightGray" class="grid" id="90"/><circle r="65" fill="none" stroke="LightGray" class="grid" id="80"/><circle r="56" fill="none" stroke="LightGray" class="grid" id="70"/><circle r="48" fill="none" stroke="LightGray" class="grid" id="60"/><circle r="40" fill="none" stroke="LightGray" class="grid" id="50"/><circle r="32" fill="none" stroke="LightGray" class="grid" id="40"/><circle r="24" fill="none" stroke="LightGray" class="grid" id="30"/><circle r="16" fill="none" stroke="LightGray" class="grid" id="20"/><circle r="8" fill="none" stroke="LightGray" class="grid" id="10"/><circle r="0" fill="none" stroke="LightGray" class="grid" id="0"/><g><line x1="0" y1="0" x2="4.939408756560991e-15" y2="-80.66666666666666" stroke="black"/><text text-anchor="middle" dy="0.35em" x="5.551732156134667e-15" y="-90.66666666666666" font-family="Arial, sans-serif" font-size="12">Agility</text></g><g><line x1="0" y1="0" x2="80.66666666666666" y2="0" stroke="black"/><text text-anchor="middle" dy="0.35em" x="90.66666666666666" y="0" font-family="Arial, sans-serif" font-size="12">Aggression</text></g><g><line x1="0" y1="0" x2="4.939408756560991e-15" y2="80.66666666666666" stroke="black"/><text text-anchor="middle" dy="0.35em" x="5.551732156134667e-15" y="90.66666666666666" font-family="Arial, sans-serif" font-size="12">Strength</text></g><g><line x1="0" y1="0" x2="-80.66666666666666" y2="9.878817513121981e-15" stroke="black"/><text text-anchor="middle" dy="0.35em" x="-90.66666666666666" y="1.1103464312269334e-14" font-family="Arial, sans-serif" font-size="12">Penalties</text></g><g id="y axis" fill="none" font-size="10" font-family="sans-serif" text-anchor="end" transform="translate(0, -80.66666666666666)"><path class="domain" stroke="currentColor" d="M-6,0H0V80.66666666666666H-6"/><g class="tick" opacity="1" transform="translate(0,5)"><line stroke="currentColor" x2="-6"/><text fill="currentColor" x="-9" dy="0.32em">90</text></g><g class="tick" opacity="1" transform="translate(0,13)"><line stroke="currentColor" x2="-6"/><text fill="currentColor" x="-9" dy="0.32em">80</text></g><g class="tick" opacity="1" transform="translate(0,22)"><line stroke="currentColor" x2="-6"/><text fill="currentColor" x="-9" dy="0.32em">70</text></g><g class="tick" opacity="1" transform="translate(0,30)"><line stroke="currentColor" x2="-6"/><text fill="currentColor" x="-9" dy="0.32em">60</text></g><g class="tick" opacity="1" transform="translate(0,39)"><line stroke="currentColor" x2="-6"/><text fill="currentColor" x="-9" dy="0.32em">50</text></g><g class="tick" opacity="1" transform="translate(0,47)"><line stroke="currentColor" x2="-6"/><text fill="currentColor" x="-9" dy="0.32em">40</text></g><g class="tick" opacity="1" transform="translate(0,55)"><line stroke="currentColor" x2="-6"/><text fill="currentColor" x="-9" dy="0.32em">30</text></g><g class="tick" opacity="1" transform="translate(0,64)"><line stroke="currentColor" x2="-6"/><text fill="currentColor" x="-9" dy="0.32em">20</text></g><g class="tick" opacity="1" transform="translate(0,72)"><line stroke="currentColor" x2="-6"/><text fill="currentColor" x="-9" dy="0.32em">10</text></g><g class="tick" opacity="1" transform="translate(0,81)"><line stroke="currentColor" x2="-6"/><text fill="currentColor" x="-9" dy="0.32em">0</text></g></g></g><g id="radars"><g id="6"><path d="M50,-3.061616997868383e-15C47.87536479198254,18.530639349499374,18.38219794234163,45.751169732296034,5.75583995599256e-15,47C-19.974409460220482,48.35700024511094,-63.812434762169026,18.911273910985262,-66,1.2124003311558795e-14C-68.42910252121949,-20.999338599014628,-19.715912326316094,-76.31950276155202,0,-75C18.72747417090021,-73.7466492305094,52.43505090062434,-21.23802235172797,50,-3.061616997868383e-15" stroke="#e377c2" fill="#e377c2" fill-opacity="0.5"/><g id="dots"><circle cx="4.592425496802574e-15" cy="-75" r="1" stroke="none" fill="#e377c2"/><circle cx="50" cy="0" r="1" stroke="none" fill="#e377c2"/><circle cx="2.87791997799628e-15" cy="47" r="1" stroke="none" fill="#e377c2"/><circle cx="-66" cy="8.082668874372531e-15" r="1" stroke="none" fill="#e377c2"/></g></g><g id="7"><path d="M71,-4.347496136973104e-15C71.33432142255421,21.811356936823245,22.22270494382082,67.93434570036045,8.205133554287266e-15,67C-21.330321617380296,66.10317423819974,-60.33499538643638,21.838463038416112,-60,1.1021821192326178e-14C-59.670523272742095,-21.478699771904093,-21.29989891266394,-62.10470584691985,0,-63C22.248416891633916,-63.935163008990926,70.67033550295085,-21.507535950293487,71,-4.347496136973104e-15" stroke="#e377c2" fill="#e377c2" fill-opacity="0.5"/><g id="dots"><circle cx="3.857637417314163e-15" cy="-63" r="1" stroke="none" fill="#e377c2"/><circle cx="71" cy="0" r="1" stroke="none" fill="#e377c2"/><circle cx="4.102566777143633e-15" cy="67" r="1" stroke="none" fill="#e377c2"/><circle cx="-60" cy="7.34788079488412e-15" r="1" stroke="none" fill="#e377c2"/></g></g><g id="8"><path d="M48,-2.9391523179536475e-15C48.2478573904049,19.308518409061538,17.356296494495147,58.11019872978408,7.225416114969383e-15,59C-18.178779605545447,59.93196732316251,-59.25148238661882,19.28359595460714,-59,1.0838124172454075e-14C-58.75169277742931,-19.04012530277676,-18.199759446488656,-56.93677528519146,0,-56C17.330060906417515,-55.107989707461385,47.755923618038395,-19.013971326916362,48,-2.9391523179536475e-15" stroke="#e377c2" fill="#e377c2" fill-opacity="0.5"/><g id="dots"><circle cx="3.429011037612589e-15" cy="-56" r="1" stroke="none" fill="#e377c2"/><circle cx="48" cy="0" r="1" stroke="none" fill="#e377c2"/><circle cx="3.6127080574846916e-15" cy="59" r="1" stroke="none" fill="#e377c2"/><circle cx="-59" cy="7.225416114969383e-15" r="1" stroke="none" fill="#e377c2"/></g></g></g></g><text x="5" y="5" style="font-family: Arial, sans-serif; font-size: 12px; fill: black; font-weight: bold; dominant-baseline: hanging;">Real Madrid</text></g><g id="FC Barcelona" transform="translate(280.3333333333333,0)" clip-path="url(#serieClipPath)"><g id="FC Barcelona" transform="translate(135.66666666666666, 125.66666666666666)"><g id="axes"><circle r="73" fill="none" stroke="LightGray" class="grid" id="90"/><circle r="65" fill="none" stroke="LightGray" class="grid" id="80"/><circle r="56" fill="none" stroke="LightGray" class="grid" id="70"/><circle r="48" fill="none" stroke="LightGray" class="grid" id="60"/><circle r="40" fill="none" stroke="LightGray" class="grid" id="50"/><circle r="32" fill="none" stroke="LightGray" class="grid" id="40"/><circle r="24" fill="none" stroke="LightGray" class="grid" id="30"/><circle r="16" fill="none" stroke="LightGray" class="grid" id="20"/><circle r="8" fill="none" stroke="LightGray" class="grid" id="10"/><circle r="0" fill="none" stroke="LightGray" class="grid" id="0"/><g><line x1="0" y1="0" x2="4.939408756560991e-15" y2="-80.66666666666666" stroke="black"/><text text-anchor="middle" dy="0.35em" x="5.551732156134667e-15" y="-90.66666666666666" font-family="Arial, sans-serif" font-size="12">Agility</text></g><g><line x1="0" y1="0" x2="80.66666666666666" y2="0" stroke="black"/><text text-anchor="middle" dy="0.35em" x="90.66666666666666" y="0" font-family="Arial, sans-serif" font-size="12">Aggression</text></g><g><line x1="0" y1="0" x2="4.939408756560991e-15" y2="80.66666666666666" stroke="black"/><text text-anchor="middle" dy="0.35em" x="5.551732156134667e-15" y="90.66666666666666" font-family="Arial, sans-serif" font-size="12">Strength</text></g><g><line x1="0" y1="0" x2="-80.66666666666666" y2="9.878817513121981e-15" stroke="black"/><text text-anchor="middle" dy="0.35em" x="-90.66666666666666" y="1.1103464312269334e-14" font-family="Arial, sans-serif" font-size="12">Penalties</text></g><g id="y axis" fill="none" font-size="10" font-family="sans-serif" text-anchor="end" transform="translate(0, -80.66666666666666)"><path class="domain" stroke="currentColor" d="M-6,0H0V80.66666666666666H-6"/><g class="tick" opacity="1" transform="translate(0,5)"><line stroke="currentColor" x2="-6"/><text fill="currentColor" x="-9" dy="0.32em">90</text></g><g class="tick" opacity="1" transform="translate(0,13)"><line stroke="currentColor" x2="-6"/><text fill="currentColor" x="-9" dy="0.32em">80</text></g><g class="tick" opacity="1" transform="translate(0,22)"><line stroke="currentColor" x2="-6"/><text fill="currentColor" x="-9" dy="0.32em">70</text></g><g class="tick" opacity="1" transform="translate(0,30)"><line stroke="currentColor" x2="-6"/><text fill="currentColor" x="-9" dy="0.32em">60</text></g><g class="tick" opacity="1" transform="translate(0,39)"><line stroke="currentColor" x2="-6"/><text fill="currentColor" x="-9" dy="0.32em">50</text></g><g class="tick" opacity="1" transform="translate(0,47)"><line stroke="currentColor" x2="-6"/><text fill="currentColor" x="-9" dy="0.32em">40</text></g><g class="tick" opacity="1" transform="translate(0,55)"><line stroke="currentColor" x2="-6"/><text fill="currentColor" x="-9" dy="0.32em">30</text></g><g class="tick" opacity="1" transform="translate(0,64)"><line stroke="currentColor" x2="-6"/><text fill="currentColor" x="-9" dy="0.32em">20</text></g><g class="tick" opacity="1" transform="translate(0,72)"><line stroke="currentColor" x2="-6"/><text fill="currentColor" x="-9" dy="0.32em">10</text></g><g class="tick" opacity="1" transform="translate(0,81)"><line stroke="currentColor" x2="-6"/><text fill="currentColor" x="-9" dy="0.32em">0</text></g></g></g><g id="radars"><g id="0"><path d="M39,-2.388061258337339e-15C37.23772937561575,18.33433038806106,15.33765179795812,46.354605295492156,5.878304635907295e-15,48C-17.09572807581096,49.833997851574026,-58.034988807288805,18.817778620869845,-60,1.1021821192326178e-14C-62.17910996641932,-20.86807906780032,-16.84413556118781,-74.6670450480449,0,-73C15.764153863845044,-71.43983951922746,41.03862518407905,-21.209470977470847,39,-2.388061258337339e-15" stroke="#ff7f0e" fill="#ff7f0e" fill-opacity="0.5"/><g id="dots"><circle cx="4.469960816887839e-15" cy="-73" r="1" stroke="none" fill="#ff7f0e"/><circle cx="39" cy="0" r="1" stroke="none" fill="#ff7f0e"/><circle cx="2.9391523179536475e-15" cy="48" r="1" stroke="none" fill="#ff7f0e"/><circle cx="-60" cy="7.34788079488412e-15" r="1" stroke="none" fill="#ff7f0e"/></g></g><g id="1"><path d="M70,-4.2862637970157365e-15C70.08337160045421,22.205743288735825,23.209397392034806,67.08343221003913,8.205133554287266e-15,67C-23.12301511202443,66.91687831351337,-69.08342674623705,22.206336923436254,-69,1.2675094371175105e-14C-68.91687476974083,-22.12608010300259,-23.12238548621969,-65.91693567669284,0,-66C23.210018416844314,-66.08337913382209,69.9169252313922,-22.126683132215437,70,-4.2862637970157365e-15" stroke="#ff7f0e" fill="#ff7f0e" fill-opacity="0.5"/><g id="dots"><circle cx="4.0413344371862654e-15" cy="-66" r="1" stroke="none" fill="#ff7f0e"/><circle cx="70" cy="0" r="1" stroke="none" fill="#ff7f0e"/><circle cx="4.102566777143633e-15" cy="67" r="1" stroke="none" fill="#ff7f0e"/><circle cx="-69" cy="8.450062914116738e-15" r="1" stroke="none" fill="#ff7f0e"/></g></g></g></g><text x="5" y="5" style="font-family: Arial, sans-serif; font-size: 12px; fill: black; font-weight: bold; dominant-baseline: hanging;">FC Barcelona</text></g><g id="FC Bayern München" transform="translate(560.6666666666666,0)" clip-path="url(#serieClipPath)"><g id="FC Bayern München" transform="translate(135.66666666666666, 125.66666666666666)"><g id="axes"><circle r="73" fill="none" stroke="LightGray" class="grid" id="90"/><circle r="65" fill="none" stroke="LightGray" class="grid" id="80"/><circle r="56" fill="none" stroke="LightGray" class="grid" id="70"/><circle r="48" fill="none" stroke="LightGray" class="grid" id="60"/><circle r="40" fill="none" stroke="LightGray" class="grid" id="50"/><circle r="32" fill="none" stroke="LightGray" class="grid" id="40"/><circle r="24" fill="none" stroke="LightGray" class="grid" id="30"/><circle r="16" fill="none" stroke="LightGray" class="grid" id="20"/><circle r="8" fill="none" stroke="LightGray" class="grid" id="10"/><circle r="0" fill="none" stroke="LightGray" class="grid" id="0"/><g><line x1="0" y1="0" x2="4.939408756560991e-15" y2="-80.66666666666666" stroke="black"/><text text-anchor="middle" dy="0.35em" x="5.551732156134667e-15" y="-90.66666666666666" font-family="Arial, sans-serif" font-size="12">Agility</text></g><g><line x1="0" y1="0" x2="80.66666666666666" y2="0" stroke="black"/><text text-anchor="middle" dy="0.35em" x="90.66666666666666" y="0" font-family="Arial, sans-serif" font-size="12">Aggression</text></g><g><line x1="0" y1="0" x2="4.939408756560991e-15" y2="80.66666666666666" stroke="black"/><text text-anchor="middle" dy="0.35em" x="5.551732156134667e-15" y="90.66666666666666" font-family="Arial, sans-serif" font-size="12">Strength</text></g><g><line x1="0" y1="0" x2="-80.66666666666666" y2="9.878817513121981e-15" stroke="black"/><text text-anchor="middle" dy="0.35em" x="-90.66666666666666" y="1.1103464312269334e-14" font-family="Arial, sans-serif" font-size="12">Penalties</text></g><g id="y axis" fill="none" font-size="10" font-family="sans-serif" text-anchor="end" transform="translate(0, -80.66666666666666)"><path class="domain" stroke="currentColor" d="M-6,0H0V80.66666666666666H-6"/><g class="tick" opacity="1" transform="translate(0,5)"><line stroke="currentColor" x2="-6"/><text fill="currentColor" x="-9" dy="0.32em">90</text></g><g class="tick" opacity="1" transform="translate(0,13)"><line stroke="currentColor" x2="-6"/><text fill="currentColor" x="-9" dy="0.32em">80</text></g><g class="tick" opacity="1" transform="translate(0,22)"><line stroke="currentColor" x2="-6"/><text fill="currentColor" x="-9" dy="0.32em">70</text></g><g class="tick" opacity="1" transform="translate(0,30)"><line stroke="currentColor" x2="-6"/><text fill="currentColor" x="-9" dy="0.32em">60</text></g><g class="tick" opacity="1" transform="translate(0,39)"><line stroke="currentColor" x2="-6"/><text fill="currentColor" x="-9" dy="0.32em">50</text></g><g class="tick" opacity="1" transform="translate(0,47)"><line stroke="currentColor" x2="-6"/><text fill="currentColor" x="-9" dy="0.32em">40</text></g><g class="tick" opacity="1" transform="translate(0,55)"><line stroke="currentColor" x2="-6"/><text fill="currentColor" x="-9" dy="0.32em">30</text></g><g class="tick" opacity="1" transform="translate(0,64)"><line stroke="currentColor" x2="-6"/><text fill="currentColor" x="-9" dy="0.32em">20</text></g><g class="tick" opacity="1" transform="translate(0,72)"><line stroke="currentColor" x2="-6"/><text fill="currentColor" x="-9" dy="0.32em">10</text></g><g class="tick" opacity="1" transform="translate(0,81)"><line stroke="currentColor" x2="-6"/><text fill="currentColor" x="-9" dy="0.32em">0</text></g></g></g><g id="radars"><g id="9"><path d="M65,-3.980102097228898e-15C65.42058404134082,22.031103654805243,22.40039822159371,67.50563313088021,8.327598234202001e-15,68C-22.89985090972084,68.50538956877273,-71.41887184505514,22.01349115103952,-71,1.304248841091931e-14C-70.58841275945952,-21.630654302693628,-22.918073205578317,-63.50435904467479,0,-63C22.380557184582806,-62.50747009403224,64.58742469357007,-21.611588762126587,65,-3.980102097228898e-15" stroke="#2ca02c" fill="#2ca02c" fill-opacity="0.5"/><g id="dots"><circle cx="3.857637417314163e-15" cy="-63" r="1" stroke="none" fill="#2ca02c"/><circle cx="65" cy="0" r="1" stroke="none" fill="#2ca02c"/><circle cx="4.1637991171010006e-15" cy="68" r="1" stroke="none" fill="#2ca02c"/><circle cx="-71" cy="8.694992273946208e-15" r="1" stroke="none" fill="#2ca02c"/></g></g></g></g><text x="5" y="5" style="font-family: Arial, sans-serif; font-size: 12px; fill: black; font-weight: bold; dominant-baseline: hanging;">FC Bayern München</text></g><g id="Juventus" transform="translate(0,233.33333333333331)" clip-path="url(#serieClipPath)"><g id="Juventus" transform="translate(135.66666666666666, 125.66666666666666)"><g id="axes"><circle r="73" fill="none" stroke="LightGray" class="grid" id="90"/><circle r="65" fill="none" stroke="LightGray" class="grid" id="80"/><circle r="56" fill="none" stroke="LightGray" class="grid" id="70"/><circle r="48" fill="none" stroke="LightGray" class="grid" id="60"/><circle r="40" fill="none" stroke="LightGray" class="grid" id="50"/><circle r="32" fill="none" stroke="LightGray" class="grid" id="40"/><circle r="24" fill="none" stroke="LightGray" class="grid" id="30"/><circle r="16" fill="none" stroke="LightGray" class="grid" id="20"/><circle r="8" fill="none" stroke="LightGray" class="grid" id="10"/><circle r="0" fill="none" stroke="LightGray" class="grid" id="0"/><g><line x1="0" y1="0" x2="4.939408756560991e-15" y2="-80.66666666666666" stroke="black"/><text text-anchor="middle" dy="0.35em" x="5.551732156134667e-15" y="-90.66666666666666" font-family="Arial, sans-serif" font-size="12">Agility</text></g><g><line x1="0" y1="0" x2="80.66666666666666" y2="0" stroke="black"/><text text-anchor="middle" dy="0.35em" x="90.66666666666666" y="0" font-family="Arial, sans-serif" font-size="12">Aggression</text></g><g><line x1="0" y1="0" x2="4.939408756560991e-15" y2="80.66666666666666" stroke="black"/><text text-anchor="middle" dy="0.35em" x="5.551732156134667e-15" y="90.66666666666666" font-family="Arial, sans-serif" font-size="12">Strength</text></g><g><line x1="0" y1="0" x2="-80.66666666666666" y2="9.878817513121981e-15" stroke="black"/><text text-anchor="middle" dy="0.35em" x="-90.66666666666666" y="1.1103464312269334e-14" font-family="Arial, sans-serif" font-size="12">Penalties</text></g><g id="y axis" fill="none" font-size="10" font-family="sans-serif" text-anchor="end" transform="translate(0, -80.66666666666666)"><path class="domain" stroke="currentColor" d="M-6,0H0V80.66666666666666H-6"/><g class="tick" opacity="1" transform="translate(0,5)"><line stroke="currentColor" x2="-6"/><text fill="currentColor" x="-9" dy="0.32em">90</text></g><g class="tick" opacity="1" transform="translate(0,13)"><line stroke="currentColor" x2="-6"/><text fill="currentColor" x="-9" dy="0.32em">80</text></g><g class="tick" opacity="1" transform="translate(0,22)"><line stroke="currentColor" x2="-6"/><text fill="currentColor" x="-9" dy="0.32em">70</text></g><g class="tick" opacity="1" transform="translate(0,30)"><line stroke="currentColor" x2="-6"/><text fill="currentColor" x="-9" dy="0.32em">60</text></g><g class="tick" opacity="1" transform="translate(0,39)"><line stroke="currentColor" x2="-6"/><text fill="currentColor" x="-9" dy="0.32em">50</text></g><g class="tick" opacity="1" transform="translate(0,47)"><line stroke="currentColor" x2="-6"/><text fill="currentColor" x="-9" dy="0.32em">40</text></g><g class="tick" opacity="1" transform="translate(0,55)"><line stroke="currentColor" x2="-6"/><text fill="currentColor" x="-9" dy="0.32em">30</text></g><g class="tick" opacity="1" transform="translate(0,64)"><line stroke="currentColor" x2="-6"/><text fill="currentColor" x="-9" dy="0.32em">20</text></g><g class="tick" opacity="1" transform="translate(0,72)"><line stroke="currentColor" x2="-6"/><text fill="currentColor" x="-9" dy="0.32em">10</text></g><g class="tick" opacity="1" transform="translate(0,81)"><line stroke="currentColor" x2="-6"/><text fill="currentColor" x="-9" dy="0.32em">0</text></g></g></g><g id="radars"><g id="2"><path d="M51,-3.1228493378257506e-15C50.524913876940914,21.997743050975217,19.146065707835167,62.559980444649746,7.83773951454306e-15,64C-20.531994132581424,65.54425841383977,-68.50577520386588,22.074501601956964,-69,1.2675094371175105e-14C-69.50507792813696,-22.5592556686427,-20.477817436916983,-71.52388428448857,0,-70C19.222414493090714,-68.56953821147276,51.48874470101018,-22.630171306878026,51,-3.1228493378257506e-15" stroke="#d62728" fill="#d62728" fill-opacity="0.5"/><g id="dots"><circle cx="4.2862637970157365e-15" cy="-70" r="1" stroke="none" fill="#d62728"/><circle cx="51" cy="0" r="1" stroke="none" fill="#d62728"/><circle cx="3.91886975727153e-15" cy="64" r="1" stroke="none" fill="#d62728"/><circle cx="-69" cy="8.450062914116738e-15" r="1" stroke="none" fill="#d62728"/></g></g></g></g><text x="5" y="5" style="font-family: Arial, sans-serif; font-size: 12px; fill: black; font-weight: bold; dominant-baseline: hanging;">Juventus</text></g><g id="Manchester City" transform="translate(280.3333333333333,233.33333333333331)" clip-path="url(#serieClipPath)"><g id="Manchester City" transform="translate(135.66666666666666, 125.66666666666666)"><g id="axes"><circle r="73" fill="none" stroke="LightGray" class="grid" id="90"/><circle r="65" fill="none" stroke="LightGray" class="grid" id="80"/><circle r="56" fill="none" stroke="LightGray" class="grid" id="70"/><circle r="48" fill="none" stroke="LightGray" class="grid" id="60"/><circle r="40" fill="none" stroke="LightGray" class="grid" id="50"/><circle r="32" fill="none" stroke="LightGray" class="grid" id="40"/><circle r="24" fill="none" stroke="LightGray" class="grid" id="30"/><circle r="16" fill="none" stroke="LightGray" class="grid" id="20"/><circle r="8" fill="none" stroke="LightGray" class="grid" id="10"/><circle r="0" fill="none" stroke="LightGray" class="grid" id="0"/><g><line x1="0" y1="0" x2="4.939408756560991e-15" y2="-80.66666666666666" stroke="black"/><text text-anchor="middle" dy="0.35em" x="5.551732156134667e-15" y="-90.66666666666666" font-family="Arial, sans-serif" font-size="12">Agility</text></g><g><line x1="0" y1="0" x2="80.66666666666666" y2="0" stroke="black"/><text text-anchor="middle" dy="0.35em" x="90.66666666666666" y="0" font-family="Arial, sans-serif" font-size="12">Aggression</text></g><g><line x1="0" y1="0" x2="4.939408756560991e-15" y2="80.66666666666666" stroke="black"/><text text-anchor="middle" dy="0.35em" x="5.551732156134667e-15" y="90.66666666666666" font-family="Arial, sans-serif" font-size="12">Strength</text></g><g><line x1="0" y1="0" x2="-80.66666666666666" y2="9.878817513121981e-15" stroke="black"/><text text-anchor="middle" dy="0.35em" x="-90.66666666666666" y="1.1103464312269334e-14" font-family="Arial, sans-serif" font-size="12">Penalties</text></g><g id="y axis" fill="none" font-size="10" font-family="sans-serif" text-anchor="end" transform="translate(0, -80.66666666666666)"><path class="domain" stroke="currentColor" d="M-6,0H0V80.66666666666666H-6"/><g class="tick" opacity="1" transform="translate(0,5)"><line stroke="currentColor" x2="-6"/><text fill="currentColor" x="-9" dy="0.32em">90</text></g><g class="tick" opacity="1" transform="translate(0,13)"><line stroke="currentColor" x2="-6"/><text fill="currentColor" x="-9" dy="0.32em">80</text></g><g class="tick" opacity="1" transform="translate(0,22)"><line stroke="currentColor" x2="-6"/><text fill="currentColor" x="-9" dy="0.32em">70</text></g><g class="tick" opacity="1" transform="translate(0,30)"><line stroke="currentColor" x2="-6"/><text fill="currentColor" x="-9" dy="0.32em">60</text></g><g class="tick" opacity="1" transform="translate(0,39)"><line stroke="currentColor" x2="-6"/><text fill="currentColor" x="-9" dy="0.32em">50</text></g><g class="tick" opacity="1" transform="translate(0,47)"><line stroke="currentColor" x2="-6"/><text fill="currentColor" x="-9" dy="0.32em">40</text></g><g class="tick" opacity="1" transform="translate(0,55)"><line stroke="currentColor" x2="-6"/><text fill="currentColor" x="-9" dy="0.32em">30</text></g><g class="tick" opacity="1" transform="translate(0,64)"><line stroke="currentColor" x2="-6"/><text fill="currentColor" x="-9" dy="0.32em">20</text></g><g class="tick" opacity="1" transform="translate(0,72)"><line stroke="currentColor" x2="-6"/><text fill="currentColor" x="-9" dy="0.32em">10</text></g><g class="tick" opacity="1" transform="translate(0,81)"><line stroke="currentColor" x2="-6"/><text fill="currentColor" x="-9" dy="0.32em">0</text></g></g></g><g id="radars"><g id="4"><path d="M61,-3.7351727373994275e-15C60.66948331114097,20.489238891453233,20.698656127319705,59.7517842270989,7.34788079488412e-15,60C-20.958771004516855,60.251335038948596,-63.66948123819316,20.497492793693173,-64,1.175660927181459e-14C-64.3357200957297,-20.82005936757991,-20.95090216808871,-64.25137463328089,0,-64C20.706908811423766,-63.75155286549998,61.335977983813414,-20.82779298191007,61,-3.7351727373994275e-15" stroke="#9467bd" fill="#9467bd" fill-opacity="0.5"/><g id="dots"><circle cx="3.91886975727153e-15" cy="-64" r="1" stroke="none" fill="#9467bd"/><circle cx="61" cy="0" r="1" stroke="none" fill="#9467bd"/><circle cx="3.67394039744206e-15" cy="60" r="1" stroke="none" fill="#9467bd"/><circle cx="-64" cy="7.83773951454306e-15" r="1" stroke="none" fill="#9467bd"/></g></g></g></g><text x="5" y="5" style="font-family: Arial, sans-serif; font-size: 12px; fill: black; font-weight: bold; dominant-baseline: hanging;">Manchester City</text></g><g id="Chelsea" transform="translate(560.6666666666666,233.33333333333331)" clip-path="url(#serieClipPath)"><g id="Chelsea" transform="translate(135.66666666666666, 125.66666666666666)"><g id="axes"><circle r="73" fill="none" stroke="LightGray" class="grid" id="90"/><circle r="65" fill="none" stroke="LightGray" class="grid" id="80"/><circle r="56" fill="none" stroke="LightGray" class="grid" id="70"/><circle r="48" fill="none" stroke="LightGray" class="grid" id="60"/><circle r="40" fill="none" stroke="LightGray" class="grid" id="50"/><circle r="32" fill="none" stroke="LightGray" class="grid" id="40"/><circle r="24" fill="none" stroke="LightGray" class="grid" id="30"/><circle r="16" fill="none" stroke="LightGray" class="grid" id="20"/><circle r="8" fill="none" stroke="LightGray" class="grid" id="10"/><circle r="0" fill="none" stroke="LightGray" class="grid" id="0"/><g><line x1="0" y1="0" x2="4.939408756560991e-15" y2="-80.66666666666666" stroke="black"/><text text-anchor="middle" dy="0.35em" x="5.551732156134667e-15" y="-90.66666666666666" font-family="Arial, sans-serif" font-size="12">Agility</text></g><g><line x1="0" y1="0" x2="80.66666666666666" y2="0" stroke="black"/><text text-anchor="middle" dy="0.35em" x="90.66666666666666" y="0" font-family="Arial, sans-serif" font-size="12">Aggression</text></g><g><line x1="0" y1="0" x2="4.939408756560991e-15" y2="80.66666666666666" stroke="black"/><text text-anchor="middle" dy="0.35em" x="5.551732156134667e-15" y="90.66666666666666" font-family="Arial, sans-serif" font-size="12">Strength</text></g><g><line x1="0" y1="0" x2="-80.66666666666666" y2="9.878817513121981e-15" stroke="black"/><text text-anchor="middle" dy="0.35em" x="-90.66666666666666" y="1.1103464312269334e-14" font-family="Arial, sans-serif" font-size="12">Penalties</text></g><g id="y axis" fill="none" font-size="10" font-family="sans-serif" text-anchor="end" transform="translate(0, -80.66666666666666)"><path class="domain" stroke="currentColor" d="M-6,0H0V80.66666666666666H-6"/><g class="tick" opacity="1" transform="translate(0,5)"><line stroke="currentColor" x2="-6"/><text fill="currentColor" x="-9" dy="0.32em">90</text></g><g class="tick" opacity="1" transform="translate(0,13)"><line stroke="currentColor" x2="-6"/><text fill="currentColor" x="-9" dy="0.32em">80</text></g><g class="tick" opacity="1" transform="translate(0,22)"><line stroke="currentColor" x2="-6"/><text fill="currentColor" x="-9" dy="0.32em">70</text></g><g class="tick" opacity="1" transform="translate(0,30)"><line stroke="currentColor" x2="-6"/><text fill="currentColor" x="-9" dy="0.32em">60</text></g><g class="tick" opacity="1" transform="translate(0,39)"><line stroke="currentColor" x2="-6"/><text fill="currentColor" x="-9" dy="0.32em">50</text></g><g class="tick" opacity="1" transform="translate(0,47)"><line stroke="currentColor" x2="-6"/><text fill="currentColor" x="-9" dy="0.32em">40</text></g><g class="tick" opacity="1" transform="translate(0,55)"><line stroke="currentColor" x2="-6"/><text fill="currentColor" x="-9" dy="0.32em">30</text></g><g class="tick" opacity="1" transform="translate(0,64)"><line stroke="currentColor" x2="-6"/><text fill="currentColor" x="-9" dy="0.32em">20</text></g><g class="tick" opacity="1" transform="translate(0,72)"><line stroke="currentColor" x2="-6"/><text fill="currentColor" x="-9" dy="0.32em">10</text></g><g class="tick" opacity="1" transform="translate(0,81)"><line stroke="currentColor" x2="-6"/><text fill="currentColor" x="-9" dy="0.32em">0</text></g></g></g><g id="radars"><g id="5"><path d="M44,-2.6942229581241772e-15C42.25938222340147,19.987373291218358,17.396775734494533,51.05286848465364,6.490628035480972e-15,53C-19.55166199365989,55.18831683676706,-67.0987817433306,20.479126156123307,-69,1.2675094371175105e-14C-71.07253766759393,-22.32450704125257,-19.280766470933944,-79.04669535443979,0,-77C17.856837640644613,-75.10445779221544,45.975008832208616,-22.67886684459157,44,-2.6942229581241772e-15" stroke="#1f77b4" fill="#1f77b4" fill-opacity="0.5"/><g id="dots"><circle cx="4.7148901767173095e-15" cy="-77" r="1" stroke="none" fill="#1f77b4"/><circle cx="44" cy="0" r="1" stroke="none" fill="#1f77b4"/><circle cx="3.245314017740486e-15" cy="53" r="1" stroke="none" fill="#1f77b4"/><circle cx="-69" cy="8.450062914116738e-15" r="1" stroke="none" fill="#1f77b4"/></g></g></g></g><text x="5" y="5" style="font-family: Arial, sans-serif; font-size: 12px; fill: black; font-weight: bold; dominant-baseline: hanging;">Chelsea</text></g><g id="Paris Saint-Germain" transform="translate(0,466.66666666666663)" clip-path="url(#serieClipPath)"><g id="Paris Saint-Germain" transform="translate(135.66666666666666, 125.66666666666666)"><g id="axes"><circle r="73" fill="none" stroke="LightGray" class="grid" id="90"/><circle r="65" fill="none" stroke="LightGray" class="grid" id="80"/><circle r="56" fill="none" stroke="LightGray" class="grid" id="70"/><circle r="48" fill="none" stroke="LightGray" class="grid" id="60"/><circle r="40" fill="none" stroke="LightGray" class="grid" id="50"/><circle r="32" fill="none" stroke="LightGray" class="grid" id="40"/><circle r="24" fill="none" stroke="LightGray" class="grid" id="30"/><circle r="16" fill="none" stroke="LightGray" class="grid" id="20"/><circle r="8" fill="none" stroke="LightGray" class="grid" id="10"/><circle r="0" fill="none" stroke="LightGray" class="grid" id="0"/><g><line x1="0" y1="0" x2="4.939408756560991e-15" y2="-80.66666666666666" stroke="black"/><text text-anchor="middle" dy="0.35em" x="5.551732156134667e-15" y="-90.66666666666666" font-family="Arial, sans-serif" font-size="12">Agility</text></g><g><line x1="0" y1="0" x2="80.66666666666666" y2="0" stroke="black"/><text text-anchor="middle" dy="0.35em" x="90.66666666666666" y="0" font-family="Arial, sans-serif" font-size="12">Aggression</text></g><g><line x1="0" y1="0" x2="4.939408756560991e-15" y2="80.66666666666666" stroke="black"/><text text-anchor="middle" dy="0.35em" x="5.551732156134667e-15" y="90.66666666666666" font-family="Arial, sans-serif" font-size="12">Strength</text></g><g><line x1="0" y1="0" x2="-80.66666666666666" y2="9.878817513121981e-15" stroke="black"/><text text-anchor="middle" dy="0.35em" x="-90.66666666666666" y="1.1103464312269334e-14" font-family="Arial, sans-serif" font-size="12">Penalties</text></g><g id="y axis" fill="none" font-size="10" font-family="sans-serif" text-anchor="end" transform="translate(0, -80.66666666666666)"><path class="domain" stroke="currentColor" d="M-6,0H0V80.66666666666666H-6"/><g class="tick" opacity="1" transform="translate(0,5)"><line stroke="currentColor" x2="-6"/><text fill="currentColor" x="-9" dy="0.32em">90</text></g><g class="tick" opacity="1" transform="translate(0,13)"><line stroke="currentColor" x2="-6"/><text fill="currentColor" x="-9" dy="0.32em">80</text></g><g class="tick" opacity="1" transform="translate(0,22)"><line stroke="currentColor" x2="-6"/><text fill="currentColor" x="-9" dy="0.32em">70</text></g><g class="tick" opacity="1" transform="translate(0,30)"><line stroke="currentColor" x2="-6"/><text fill="currentColor" x="-9" dy="0.32em">60</text></g><g class="tick" opacity="1" transform="translate(0,39)"><line stroke="currentColor" x2="-6"/><text fill="currentColor" x="-9" dy="0.32em">50</text></g><g class="tick" opacity="1" transform="translate(0,47)"><line stroke="currentColor" x2="-6"/><text fill="currentColor" x="-9" dy="0.32em">40</text></g><g class="tick" opacity="1" transform="translate(0,55)"><line stroke="currentColor" x2="-6"/><text fill="currentColor" x="-9" dy="0.32em">30</text></g><g class="tick" opacity="1" transform="translate(0,64)"><line stroke="currentColor" x2="-6"/><text fill="currentColor" x="-9" dy="0.32em">20</text></g><g class="tick" opacity="1" transform="translate(0,72)"><line stroke="currentColor" x2="-6"/><text fill="currentColor" x="-9" dy="0.32em">10</text></g><g class="tick" opacity="1" transform="translate(0,81)"><line stroke="currentColor" x2="-6"/><text fill="currentColor" x="-9" dy="0.32em">0</text></g></g></g><g id="radars"><g id="3"><path d="M45,-2.7554552980815448e-15C42.32457253393789,16.831347406283722,16.996333167516088,38.50912204236065,4.898587196589413e-15,40C-19.136046400647803,41.678568517921036,-62.18964703049329,17.523178192983504,-65,1.1940306291686693e-14C-68.22920916484064,-20.134840083041233,-18.718150724094823,-78.61572023711217,0,-77C17.60962253582083,-75.47996610784806,48.256211270648336,-20.485108947919645,45,-2.7554552980815448e-15" stroke="#8c564b" fill="#8c564b" fill-opacity="0.5"/><g id="dots"><circle cx="4.7148901767173095e-15" cy="-77" r="1" stroke="none" fill="#8c564b"/><circle cx="45" cy="0" r="1" stroke="none" fill="#8c564b"/><circle cx="2.4492935982947065e-15" cy="40" r="1" stroke="none" fill="#8c564b"/><circle cx="-65" cy="7.960204194457796e-15" r="1" stroke="none" fill="#8c564b"/></g></g></g></g><text x="5" y="5" style="font-family: Arial, sans-serif; font-size: 12px; fill: black; font-weight: bold; dominant-baseline: hanging;">Paris Saint-Germain</text></g><g id="grid"><rect x="0" y="0" width="280.3333333333333" height="233.33333333333334" fill="none" stroke="#ccc"/><rect x="280.3333333333333" y="0" width="280.3333333333333" height="233.33333333333334" fill="none" stroke="#ccc"/><rect x="560.6666666666666" y="0" width="280.3333333333333" height="233.33333333333334" fill="none" stroke="#ccc"/><rect x="0" y="233.33333333333331" width="280.3333333333333" height="233.33333333333334" fill="none" stroke="#ccc"/><rect x="280.3333333333333" y="233.33333333333331" width="280.3333333333333" height="233.33333333333334" fill="none" stroke="#ccc"/><rect x="560.6666666666666" y="233.33333333333331" width="280.3333333333333" height="233.33333333333334" fill="none" stroke="#ccc"/><rect x="0" y="466.66666666666663" width="280.3333333333333" height="233.33333333333334" fill="none" stroke="#ccc"/></g></svg>